<svg
  width="43"
  height="34"
  viewBox="0 0 43 34"
  fill="none"
  xmlns="http://www.w3.org/2000/svg"
>
  <!-- Icon path -->
  <path
    fill-rule="evenodd"
    clip-rule="evenodd"
    d="M14.3333 2.61538C14.3333 1.17095 15.6168 0 17.2 0H25.8C27.3832 0 28.6667 1.17095 28.6667 2.61538V5.23077H40.1333C41.7166 5.23077 43 6.40173 43 7.84615V15.6923C43 18.0169 41.8909 20.1054 40.1333 21.5405V30.0769C40.1333 32.2435 38.2081 34 35.8333 34H7.16667C4.79183 34 2.86667 32.2435 2.86667 30.0769V21.54C1.10931 20.105 0 18.0169 0 15.6923V7.84615C0 6.40173 1.28345 5.23077 2.86667 5.23077H14.3333V2.61538ZM25.8 2.61538V5.23077H17.2V2.61538H25.8ZM2.86667 7.84615H14.3333H15.7667H27.2333H28.6667H40.1333V15.6923C40.1333 17.4028 39.2349 18.9214 37.8391 19.878C36.8811 20.5345 35.6923 20.9231 34.4 20.9231H22.9333V19.6154C22.9333 18.8932 22.2916 18.3077 21.5 18.3077C20.7084 18.3077 20.0667 18.8932 20.0667 19.6154V20.9231H8.6C7.30799 20.9231 6.11919 20.5342 5.16083 19.8775C3.76494 18.9209 2.86667 17.4027 2.86667 15.6923V7.84615ZM20.0667 23.5385H8.6C7.59555 23.5385 6.63037 23.3808 5.73333 23.0914V30.0769C5.73333 30.799 6.37506 31.3846 7.16667 31.3846H35.8333C36.6248 31.3846 37.2667 30.799 37.2667 30.0769V23.0916C36.3697 23.381 35.4045 23.5385 34.4 23.5385H22.9333V24.8462C22.9333 25.5684 22.2916 26.1538 21.5 26.1538C20.7084 26.1538 20.0667 25.5684 20.0667 24.8462V23.5385Z"
    fill="#4c0800"
  />
</svg>
